<?xml version="1.0" standalone="no"?>
<!DOCTYPE svg PUBLIC "-//W3C//DTD SVG 20010904//EN"
 "http://www.w3.org/TR/2001/REC-SVG-20010904/DTD/svg10.dtd">
<svg version="1.0" xmlns="http://www.w3.org/2000/svg"
 width="320.000000pt" height="320.000000pt" viewBox="0 0 320.000000 320.000000"
 preserveAspectRatio="xMidYMid meet">
<metadata>
Created by potrace 1.11, written by Peter Selinger 2001-2013
</metadata>
<g transform="translate(0.000000,320.000000) scale(0.100000,-0.100000)"
fill="#000000" stroke="none">
<path d="M5 3188 c-3 -7 -4 -726 -3 -1598 l3 -1585 1595 0 1595 0 0 1595 0
1595 -1593 3 c-1269 2 -1594 0 -1597 -10z m1835 -100 c419 -57 803 -302 1042
-663 187 -281 272 -611 247 -948 -10 -141 -30 -242 -75 -377 -145 -435 -513
-803 -950 -949 -172 -57 -280 -74 -479 -75 -204 0 -301 14 -475 71 -238 77
-415 187 -601 372 -229 229 -358 470 -421 786 -32 156 -31 423 1 575 45 213
114 379 230 552 327 488 890 738 1481 656z"/>
<path d="M620 1985 l0 -185 175 0 175 0 0 -435 0 -435 185 0 185 0 0 435 0
435 170 0 170 0 0 185 0 185 -530 0 -530 0 0 -185z"/>
<path d="M1510 1450 c0 -299 58 -428 219 -492 47 -18 82 -22 214 -26 l158 -4
-6 -32 c-4 -17 -17 -49 -29 -71 -41 -75 -188 -124 -378 -125 l-88 0 0 -185 0
-185 65 0 c36 0 109 5 161 11 295 33 479 139 575 334 61 123 68 184 69 583 l0
342 -185 0 -185 0 0 -150 0 -150 -109 0 -108 0 -6 68 c-4 37 -7 104 -7 150 l0
82 -180 0 -180 0 0 -150z"/>
</g>
</svg>
